<svg width="35" height="35" viewBox="0 0 35 35" fill="none" xmlns="http://www.w3.org/2000/svg">
<circle cx="17.5" cy="17.5" r="17.5" fill="#0046FF"/>
<path d="M18.592 13.5598L21.4377 16.4062C21.5575 16.5261 21.5575 16.7217 21.4377 16.8417L14.5475 23.7335L11.6198 24.0585C11.2286 24.1027 10.8973 23.7714 10.9415 23.3801L11.2664 20.4517L18.1566 13.5598C18.2765 13.4399 18.4721 13.4399 18.592 13.5598ZM23.7028 12.8372L22.1633 11.2972C21.6837 10.8176 20.9045 10.8176 20.4218 11.2972L19.305 12.4143C19.1851 12.5342 19.1851 12.7299 19.305 12.8498L22.1507 15.6962C22.2705 15.8161 22.4661 15.8161 22.586 15.6962L23.7028 14.5791C24.1824 14.0963 24.1824 13.3168 23.7028 12.8372Z" fill="white"/>
</svg>
