<svg width="221" height="61" viewBox="0 0 221 61" fill="none" xmlns="http://www.w3.org/2000/svg">
<path d="M18.2058 0H42.6411C52.6953 0 60.8469 8.15155 60.8469 18.2058V42.6411C60.8469 52.6953 52.6953 60.8469 42.6411 60.8469H18.2058C8.15155 60.8469 0 52.6953 0 42.6411V18.2058C0 8.15155 8.15155 0 18.2058 0Z" fill="white"/>
<path d="M41.4531 50.8503H19.3937C14.1493 50.8503 9.88037 46.5814 9.88037 41.3369V17.3459H15.9071V41.3369C15.9071 43.2589 17.4717 44.8236 19.3937 44.8236H41.4628C43.3848 44.8236 44.9494 43.2589 44.9494 41.3369V26.782C44.9494 24.86 43.3848 23.2954 41.4628 23.2954H39.9465V26.782C39.9465 32.0264 35.6775 36.2953 30.4331 36.2953H30.4138C25.1694 36.2953 20.9004 32.0264 20.9004 26.782C20.9004 21.5376 25.1694 17.2686 30.4138 17.2686H33.9197V7.34961H39.9465V17.2686H41.4628C46.7072 17.2686 50.9762 21.5376 50.9762 26.782V41.3369C50.9665 46.5814 46.6976 50.8503 41.4531 50.8503ZM30.4138 23.2954C28.4918 23.2954 26.9272 24.86 26.9272 26.782C26.9272 28.704 28.4918 30.2686 30.4138 30.2686H30.4331C32.3551 30.2686 33.9197 28.704 33.9197 26.782V23.2954H30.4138Z" fill="#0046FF"/>
<path d="M68.0521 19.0437L74.1948 18.0586V24.4427H81.5737V29.5519H74.1948V37.1819C74.1948 38.4761 74.4169 39.4999 74.8709 40.2725C75.3248 41.0452 76.2327 41.4219 77.6138 41.4219C78.2706 41.4219 78.9563 41.3639 79.6517 41.2384C80.3567 41.1128 80.9942 40.939 81.564 40.7265L82.4332 45.5073C81.6896 45.8067 80.8686 46.0675 79.9607 46.2896C79.0529 46.5118 77.9422 46.618 76.619 46.618C74.9385 46.618 73.5573 46.3959 72.4563 45.9419C71.3553 45.488 70.4764 44.8602 69.8196 44.0489C69.1628 43.2376 68.6992 42.2525 68.4385 41.1031C68.1777 39.9538 68.0425 38.6693 68.0425 37.2688V19.0437H68.0521Z" fill="white"/>
<path d="M106.009 35.2408C106.009 36.9406 105.758 38.5053 105.266 39.9154C104.773 41.3351 104.058 42.5424 103.121 43.5469C102.185 44.5513 101.064 45.324 99.7603 45.8745C98.4564 46.425 96.9884 46.6955 95.3755 46.6955C93.7819 46.6955 92.3331 46.425 91.0293 45.8745C89.7254 45.324 88.6051 44.5513 87.6682 43.5469C86.7314 42.5424 86.007 41.3351 85.4854 39.9154C84.9639 38.4956 84.7031 36.9406 84.7031 35.2408C84.7031 33.5409 84.9736 31.986 85.5048 30.5855C86.036 29.1851 86.7796 27.9875 87.7262 27.0023C88.6727 26.0172 89.8027 25.2445 91.1065 24.694C92.4104 24.1435 93.8302 23.873 95.3755 23.873C96.9401 23.873 98.3792 24.1435 99.6831 24.694C100.987 25.2445 102.107 26.0172 103.044 27.0023C103.981 27.9875 104.705 29.1851 105.227 30.5855C105.748 31.986 106.009 33.5409 106.009 35.2408ZM99.741 35.2408C99.741 33.3478 99.3643 31.8507 98.611 30.769C97.8576 29.6873 96.7759 29.1368 95.3755 29.1368C93.975 29.1368 92.8836 29.6776 92.1206 30.769C91.348 31.8507 90.9713 33.3478 90.9713 35.2408C90.9713 37.1338 91.3576 38.6405 92.1206 39.7512C92.8933 40.8619 93.975 41.4221 95.3755 41.4221C96.7759 41.4221 97.8576 40.8619 98.611 39.7512C99.3643 38.6405 99.741 37.1435 99.741 35.2408Z" fill="white"/>
<path d="M129.875 45.4208C129.324 45.585 128.696 45.7395 127.981 45.8941C127.267 46.0486 126.523 46.1742 125.731 46.2901C124.949 46.3963 124.147 46.4929 123.336 46.5605C122.525 46.6281 121.752 46.6667 121.008 46.6667C119.221 46.6667 117.628 46.406 116.227 45.8844C114.827 45.3629 113.649 44.6095 112.683 43.634C111.717 42.6586 110.983 41.4803 110.481 40.0895C109.969 38.6987 109.718 37.1437 109.718 35.4149C109.718 33.6571 109.94 32.0731 110.375 30.6534C110.809 29.2336 111.447 28.036 112.268 27.0509C113.088 26.0657 114.103 25.3027 115.3 24.7812C116.498 24.2596 117.86 23.9989 119.405 23.9989C120.255 23.9989 121.018 24.0858 121.694 24.25C122.37 24.4142 123.046 24.646 123.732 24.955V15.1326L129.875 14.1475V45.4208ZM115.986 35.1155C115.986 37.0085 116.411 38.5345 117.261 39.6935C118.111 40.8428 119.376 41.4223 121.057 41.4223C121.607 41.4223 122.109 41.403 122.583 41.3644C123.046 41.3257 123.432 41.2774 123.732 41.2195V30.0546C123.346 29.8035 122.843 29.6006 122.225 29.4364C121.607 29.2723 120.979 29.1853 120.351 29.1853C117.435 29.1853 115.986 31.1653 115.986 35.1155Z" fill="white"/>
<path d="M143.434 23.8633C145.25 23.8633 146.757 24.0661 147.964 24.4814C149.171 24.8967 150.137 25.4859 150.871 26.2489C151.596 27.0215 152.117 27.9487 152.417 29.0498C152.716 30.1508 152.871 31.3677 152.871 32.7199V45.4977C151.992 45.6909 150.765 45.913 149.2 46.1738C147.636 46.4346 145.743 46.5698 143.512 46.5698C142.111 46.5698 140.836 46.4442 139.697 46.2028C138.557 45.9517 137.572 45.546 136.751 44.9858C135.93 44.4257 135.293 43.6916 134.858 42.7838C134.414 41.8759 134.201 40.7652 134.201 39.442C134.201 38.1768 134.452 37.1047 134.964 36.2258C135.476 35.3469 136.152 34.6419 137.002 34.1203C137.852 33.5988 138.827 33.2221 139.928 32.9903C141.03 32.7585 142.169 32.6426 143.348 32.6426C144.139 32.6426 144.854 32.6812 145.472 32.7489C146.09 32.8165 146.593 32.9034 146.979 33.0193V32.4398C146.979 31.3967 146.66 30.5564 146.033 29.9287C145.405 29.3009 144.304 28.9821 142.739 28.9821C141.696 28.9821 140.663 29.0594 139.648 29.2043C138.634 29.3588 137.755 29.5713 137.012 29.8417L136.229 24.8967C136.587 24.7905 137.031 24.6649 137.572 24.549C138.103 24.4235 138.692 24.3172 139.32 24.2206C139.948 24.1241 140.614 24.0468 141.319 23.9695C142.015 23.9019 142.72 23.8633 143.434 23.8633ZM143.927 41.8373C144.535 41.8373 145.105 41.8276 145.656 41.7986C146.206 41.7696 146.641 41.731 146.979 41.6731V37.0178C146.728 36.9598 146.361 36.9116 145.868 36.8536C145.376 36.7957 144.922 36.7667 144.507 36.7667C143.927 36.7667 143.386 36.8053 142.874 36.8729C142.362 36.9405 141.918 37.0757 141.532 37.2689C141.145 37.4621 140.846 37.7228 140.624 38.0512C140.402 38.3796 140.296 38.7949 140.296 39.2875C140.296 40.2533 140.614 40.9197 141.261 41.2867C141.918 41.6537 142.797 41.8373 143.927 41.8373Z" fill="white"/>
<path d="M171.502 29.8809C170.952 29.7457 170.304 29.6008 169.561 29.4463C168.817 29.2917 168.025 29.2145 167.166 29.2145C166.779 29.2145 166.316 29.2531 165.784 29.3207C165.253 29.3883 164.848 29.4656 164.567 29.5428V46.1164H158.425V25.6023C159.526 25.216 160.82 24.8586 162.317 24.5109C163.814 24.1632 165.485 23.999 167.32 23.999C167.648 23.999 168.044 24.0183 168.518 24.057C168.981 24.0956 169.455 24.1536 169.918 24.2212C170.382 24.2888 170.855 24.3757 171.319 24.4723C171.782 24.5689 172.188 24.6848 172.516 24.82L171.502 29.8809Z" fill="white"/>
<path d="M195.695 35.2408C195.695 36.9406 195.444 38.5053 194.952 39.9154C194.459 41.3351 193.744 42.5424 192.807 43.5469C191.871 44.5513 190.75 45.324 189.446 45.8745C188.142 46.425 186.674 46.6955 185.062 46.6955C183.468 46.6955 182.019 46.425 180.715 45.8745C179.411 45.324 178.291 44.5513 177.354 43.5469C176.417 42.5424 175.693 41.3351 175.171 39.9154C174.65 38.4956 174.389 36.9406 174.389 35.2408C174.389 33.5409 174.66 31.986 175.191 30.5855C175.722 29.1851 176.466 27.9875 177.412 27.0023C178.359 26.0172 179.489 25.2445 180.793 24.694C182.096 24.1435 183.516 23.873 185.062 23.873C186.626 23.873 188.065 24.1435 189.369 24.694C190.673 25.2445 191.793 26.0172 192.73 27.0023C193.667 27.9875 194.391 29.1851 194.913 30.5855C195.434 31.986 195.695 33.5409 195.695 35.2408ZM189.427 35.2408C189.427 33.3478 189.05 31.8507 188.297 30.769C187.544 29.6873 186.462 29.1368 185.062 29.1368C183.661 29.1368 182.57 29.6776 181.807 30.769C181.034 31.8507 180.657 33.3478 180.657 35.2408C180.657 37.1338 181.044 38.6405 181.807 39.7512C182.579 40.8619 183.661 41.4221 185.062 41.4221C186.462 41.4221 187.544 40.8619 188.297 39.7512C189.05 38.6405 189.427 37.1435 189.427 35.2408Z" fill="white"/>
<path d="M206.57 32.2277C207.178 31.5709 207.797 30.8852 208.444 30.1801C209.091 29.4654 209.709 28.77 210.317 28.065C210.926 27.3599 211.496 26.7032 212.027 26.0754C212.558 25.4476 213.022 24.8971 213.408 24.4335H220.71C219.251 26.1044 217.831 27.7076 216.441 29.224C215.05 30.75 213.534 32.3146 211.882 33.9372C212.703 34.6809 213.553 35.5694 214.441 36.6029C215.32 37.6363 216.17 38.6987 217.001 39.7997C217.822 40.9008 218.585 42.0018 219.271 43.1028C219.956 44.2039 220.536 45.2083 220.999 46.1162H213.939C213.505 45.4015 213.002 44.6095 212.442 43.7403C211.882 42.871 211.283 42.0018 210.655 41.1422C210.028 40.273 209.361 39.4424 208.656 38.6407C207.961 37.8391 207.265 37.163 206.58 36.6125V46.1162H200.437V15.1326L206.58 14.1475V32.2277H206.57Z" fill="white"/>
</svg>
